<svg width="30" height="30" viewBox="0 0 30 30" fill="none" xmlns="http://www.w3.org/2000/svg">
<path d="M15 11.0947C12.8496 11.0947 11.0947 12.8496 11.0947 15C11.0947 17.1504 12.8496 18.9053 15 18.9053C17.1504 18.9053 18.9053 17.1504 18.9053 15C18.9053 12.8496 17.1504 11.0947 15 11.0947ZM26.7129 15C26.7129 13.3828 26.7275 11.7803 26.6367 10.166C26.5459 8.29103 26.1182 6.62697 24.7471 5.25587C23.373 3.88185 21.7119 3.45705 19.8369 3.36623C18.2197 3.27541 16.6172 3.29006 15.0029 3.29006C13.3857 3.29006 11.7832 3.27541 10.1689 3.36623C8.29394 3.45705 6.62988 3.88478 5.25878 5.25587C3.88476 6.6299 3.45995 8.29103 3.36913 10.166C3.27831 11.7832 3.29296 13.3858 3.29296 15C3.29296 16.6143 3.27831 18.2197 3.36913 19.834C3.45995 21.709 3.88769 23.373 5.25878 24.7441C6.63281 26.1182 8.29394 26.543 10.1689 26.6338C11.7861 26.7246 13.3887 26.71 15.0029 26.71C16.6201 26.71 18.2227 26.7246 19.8369 26.6338C21.7119 26.543 23.376 26.1152 24.7471 24.7441C26.1211 23.3701 26.5459 21.709 26.6367 19.834C26.7305 18.2197 26.7129 16.6172 26.7129 15ZM15 21.0088C11.6748 21.0088 8.9912 18.3252 8.9912 15C8.9912 11.6748 11.6748 8.99122 15 8.99122C18.3252 8.99122 21.0088 11.6748 21.0088 15C21.0088 18.3252 18.3252 21.0088 15 21.0088ZM21.2549 10.1484C20.4785 10.1484 19.8516 9.5215 19.8516 8.74513C19.8516 7.96876 20.4785 7.34181 21.2549 7.34181C22.0312 7.34181 22.6582 7.96876 22.6582 8.74513C22.6584 8.92948 22.6223 9.11207 22.5518 9.28243C22.4814 9.45279 22.378 9.60759 22.2477 9.73794C22.1173 9.8683 21.9625 9.97166 21.7922 10.0421C21.6218 10.1125 21.4392 10.1487 21.2549 10.1484Z" fill="white"/>
</svg>
