<svg width="30" height="30" viewBox="0 0 30 30" fill="none" xmlns="http://www.w3.org/2000/svg">
<path d="M29.5538 6.17125C28.51 6.63375 27.3888 6.94625 26.21 7.0875C27.4263 6.35975 28.3362 5.21434 28.77 3.865C27.6273 4.54374 26.3767 5.0215 25.0725 5.2775C24.1955 4.34109 23.0338 3.72041 21.7679 3.51185C20.502 3.30328 19.2026 3.51849 18.0716 4.12407C16.9405 4.72965 16.041 5.69171 15.5127 6.86088C14.9844 8.03006 14.8569 9.34094 15.15 10.59C12.8346 10.4737 10.5695 9.87194 8.50178 8.82364C6.43403 7.77533 4.6098 6.30396 3.1475 4.505C2.6475 5.3675 2.36 6.3675 2.36 7.4325C2.35945 8.39125 2.59554 9.33531 3.04735 10.1809C3.49916 11.0265 4.15271 11.7476 4.95 12.28C4.02535 12.2506 3.12109 12.0007 2.3125 11.5513V11.6263C2.31241 12.9709 2.77754 14.2742 3.62898 15.315C4.48042 16.3558 5.66572 17.0699 6.98375 17.3363C6.12598 17.5684 5.22668 17.6026 4.35375 17.4363C4.72563 18.5933 5.45 19.605 6.42546 20.3299C7.40093 21.0548 8.57865 21.4565 9.79375 21.4788C7.73105 23.098 5.18361 23.9764 2.56125 23.9725C2.09673 23.9726 1.6326 23.9455 1.17125 23.8913C3.8331 25.6027 6.93168 26.511 10.0963 26.5075C20.8088 26.5075 26.665 17.635 26.665 9.94C26.665 9.69 26.6588 9.4375 26.6475 9.1875C27.7866 8.36372 28.7699 7.34362 29.5513 6.175L29.5538 6.17125Z" fill="white"/>
</svg>
