<?xml version="1.0" encoding="UTF-8" standalone="no"?>
<svg
   version="1.0"
   width="512.000000pt"
   height="512.000000pt"
   viewBox="0 0 512.000000 512.000000"
   preserveAspectRatio="xMidYMid meet"
   id="svg8"
   sodipodi:docname="web-white.svg"
   inkscape:version="1.1 (c68e22c387, 2021-05-23)"
   xmlns:inkscape="http://www.inkscape.org/namespaces/inkscape"
   xmlns:sodipodi="http://sodipodi.sourceforge.net/DTD/sodipodi-0.dtd"
   xmlns="http://www.w3.org/2000/svg"
   xmlns:svg="http://www.w3.org/2000/svg">
  <defs
     id="defs12" />
  <sodipodi:namedview
     id="namedview10"
     pagecolor="#505050"
     bordercolor="#eeeeee"
     borderopacity="1"
     inkscape:pageshadow="0"
     inkscape:pageopacity="0"
     inkscape:pagecheckerboard="0"
     inkscape:document-units="pt"
     showgrid="false"
     inkscape:zoom="0.80273438"
     inkscape:cx="341.33333"
     inkscape:cy="341.9562"
     inkscape:window-width="1366"
     inkscape:window-height="705"
     inkscape:window-x="-8"
     inkscape:window-y="-8"
     inkscape:window-maximized="1"
     inkscape:current-layer="svg8" />
  <metadata
     id="metadata2">
Created by potrace 1.16, written by Peter Selinger 2001-2019
</metadata>
  <g
     transform="matrix(0.1,0,0,-0.1,-2.8029197,512)"
     fill="#000000"
     stroke="none"
     id="g6"
     style="fill:#ffffff">
    <path
       d="M 2240,5105 C 1796,5050 1388,4885 1020,4612 870,4500 620,4250 508,4100 232,3728 69,3321 14,2870 -3,2722 -3,2398 14,2250 69,1799 232,1392 508,1020 620,870 870,620 1020,508 1392,232 1799,69 2250,14 c 148,-17 472,-17 620,0 451,55 858,218 1230,494 150,112 400,362 512,512 276,372 439,779 494,1230 17,148 17,472 0,620 -55,451 -218,858 -494,1230 -112,150 -362,400 -512,512 -372,276 -779,439 -1230,494 -143,17 -488,16 -630,-1 z m 160,-821 v -506 l -182,7 c -174,6 -565,39 -574,48 -2,2 16,54 41,116 136,341 330,613 531,747 66,44 152,88 182,94 1,0 2,-228 2,-506 z m 389,480 c 72,-30 201,-127 279,-209 103,-109 207,-264 288,-430 57,-118 129,-294 122,-301 -8,-7 -396,-35 -570,-40 l -198,-7 v 507 507 l 23,-7 c 12,-3 37,-13 56,-20 z M 1672,4583 c -112,-156 -225,-373 -296,-568 -20,-55 -41,-109 -45,-121 l -9,-21 -139,27 c -174,34 -363,82 -363,92 0,15 265,275 335,330 127,99 258,182 404,255 80,40 148,73 153,73 5,0 -14,-30 -40,-67 z m 1889,-6 c 212,-106 386,-228 553,-387 90,-85 200,-210 192,-217 -8,-8 -203,-53 -358,-82 l -148,-28 -16,46 c -105,291 -217,515 -345,687 -22,30 -36,54 -31,54 4,0 73,-33 153,-73 z M 835,3659 c 66,-17 182,-43 258,-59 76,-15 140,-29 142,-31 2,-2 -5,-47 -16,-99 -41,-199 -59,-348 -85,-682 l -6,-78 H 718 309 l 6,58 c 35,308 101,536 231,799 l 75,152 47,-15 c 26,-8 101,-28 167,-45 z m 3744,-101 c 124,-250 189,-477 225,-785 l 7,-53 h -410 -409 l -6,63 c -3,34 -10,125 -16,202 -12,151 -38,335 -68,483 l -19,92 21,5 c 11,3 100,20 196,40 96,19 222,48 280,64 58,15 110,29 116,30 7,0 44,-63 83,-141 z m -2714,-63 c 99,-8 260,-18 357,-22 l 178,-6 v -374 -373 h -480 -480 l 5,73 c 20,263 47,472 81,627 8,36 16,74 19,86 4,19 8,20 72,12 38,-4 149,-15 248,-23 z m 1717,-20 c 46,-222 77,-449 92,-672 l 5,-83 h -479 -480 v 375 375 h 110 c 131,0 408,16 580,35 167,17 163,18 172,-30 z M 1134,2348 c 23,-279 30,-348 47,-460 16,-110 37,-221 54,-295 5,-19 -1,-22 -68,-33 -99,-16 -363,-75 -469,-104 l -88,-25 -24,42 c -83,141 -173,377 -219,572 -21,89 -57,313 -57,356 0,5 158,9 409,9 h 409 z m 1276,-312 v -363 l -167,-7 c -93,-4 -262,-14 -378,-23 -115,-9 -234,-17 -264,-17 l -54,-1 -13,55 c -35,150 -70,411 -88,653 l -5,67 h 484 485 z m 1264,297 c -11,-150 -26,-295 -45,-417 -20,-129 -53,-294 -61,-302 -3,-2 -65,2 -139,11 -126,13 -318,27 -591,41 l -118,6 v 364 364 h 480 479 z m 1130,15 c -36,-308 -100,-530 -225,-785 -39,-79 -73,-143 -77,-143 -4,0 -52,13 -107,29 -108,31 -326,81 -442,102 -40,7 -73,13 -73,15 0,1 9,45 20,97 39,194 80,500 80,610 0,29 3,69 6,90 l 7,37 h 409 409 z M 2400,855 c 0,-278 -2,-505 -5,-505 -17,0 -142,64 -191,98 -113,76 -265,250 -353,400 -100,172 -221,450 -201,462 12,7 431,40 560,43 47,2 109,4 138,5 l 52,2 z m 610,490 c 111,-5 462,-35 467,-39 2,-2 -15,-48 -36,-103 -161,-412 -394,-710 -647,-824 -35,-16 -66,-29 -69,-29 -3,0 -5,227 -5,505 v 506 l 88,-5 c 48,-3 139,-8 202,-11 z M 1367,1145 c 82,-223 200,-449 319,-612 l 53,-72 -32,11 c -18,7 -90,41 -162,77 -137,70 -273,157 -390,250 -156,125 -368,348 -343,362 35,18 465,110 497,106 7,-1 32,-54 58,-122 z m 2598,85 c 154,-31 333,-75 341,-83 8,-7 -103,-133 -192,-217 -163,-155 -339,-279 -539,-381 -71,-36 -144,-70 -162,-77 l -32,-11 52,72 c 121,165 242,397 319,609 24,65 48,118 53,118 6,0 78,-14 160,-30 z"
       id="path4"
       style="fill:#ffffff" />
  </g>
</svg>
